<svg enable-background="new 0 0 64 64" height="64px" id="Layer_1" version="1.1" viewBox="0 0 64 64" width="64px" xml:space="preserve" xmlns="http://www.w3.org/2000/svg" xmlns:xlink="http://www.w3.org/1999/xlink">
  <g>
    <g>
      <path d="    M54.545,57.794c4.602,0,8.33-3.33,8.33-7.438c0-3.715-3.049-6.793-7.033-7.348l0,0c0-6.494-5.707-12.508-12.029-12.508    c-0.205,0,0.199-0.01,0,0c-3.35,0.181-6.316,1.837-8.299,4.348" fill="none" stroke="#fff" stroke-linecap="round" stroke-linejoin="round" stroke-miterlimit="10" stroke-width="2"/>
      <path d="    M43.812,30.501c-0.754-7.915-7.787-14.119-16.349-14.119c-9.065,0-16.414,6.952-16.414,15.531c0,0.832,0.07,1.649,0.203,2.443l0,0    C5.552,35.03,1.125,40.003,1.125,46.038c0,6.49,5.126,11.756,11.449,11.756h41.97" fill="none" stroke="#fff" stroke-linecap="round" stroke-linejoin="round" stroke-miterlimit="10" stroke-width="2"/>
    </g>
    <path d="   M37.842,15.114c1.438-0.652,3.035-1.016,4.715-1.016c6.314,0,11.43,5.119,11.43,11.432c0,1.371-0.24,2.688-0.684,3.906" fill="none" stroke="#fff" stroke-linecap="round" stroke-linejoin="round" stroke-miterlimit="10" stroke-width="2"/>
    <line fill="none" stroke="#fff" stroke-linecap="round" stroke-linejoin="round" stroke-miterlimit="10" stroke-width="2" x1="42.686" x2="42.686" y1="6.206" y2="10.728"/><line fill="none" stroke="#fff" stroke-linecap="round" stroke-linejoin="round" stroke-miterlimit="10" stroke-width="2" x1="61.707" x2="57.186" y1="25.53" y2="25.53"/>
    <line fill="none" stroke="#fff" stroke-linecap="round" stroke-linejoin="round" stroke-miterlimit="10" stroke-width="2" x1="56.143" x2="52.945" y1="11.905" y2="15.104"/>
  </g>
  </svg>